<svg xmlns="http://www.w3.org/2000/svg">

<!-- icons Login and Register -->
<symbol id="icon-eye" viewBox="0 0 32 32">
<path stroke-linejoin="round" stroke-linecap="round" stroke-miterlimit="4" stroke-width="2.88" d="M1.333 16c0 0 5.333-10.667 14.667-10.667s14.667 10.667 14.667 10.667-5.333 10.667-14.667 10.667c-9.333 0-14.667-10.667-14.667-10.667z"></path>
<path stroke-linejoin="round" stroke-linecap="round" stroke-miterlimit="4" stroke-width="2.88" d="M16 20c2.209 0 4-1.791 4-4s-1.791-4-4-4c-2.209 0-4 1.791-4 4s1.791 4 4 4z"></path>
</symbol>
<symbol id="icon-eye-off" viewBox="0 0 32 32">
<path stroke-linejoin="round" stroke-linecap="round" stroke-miterlimit="4" stroke-width="2.88" d="M23.92 23.92c-2.279 1.737-5.055 2.7-7.92 2.747-9.333 0-14.667-10.667-14.667-10.667 1.659-3.091 3.959-5.791 6.747-7.92M13.2 5.653c0.918-0.215 1.857-0.322 2.8-0.32 9.333 0 14.667 10.667 14.667 10.667-0.809 1.514-1.775 2.94-2.88 4.253M18.827 18.827c-0.366 0.393-0.808 0.708-1.299 0.927s-1.020 0.336-1.557 0.346c-0.537 0.009-1.071-0.089-1.569-0.291s-0.95-0.501-1.33-0.88c-0.38-0.38-0.679-0.832-0.88-1.33s-0.3-1.032-0.29-1.569c0.009-0.537 0.127-1.067 0.346-1.558s0.534-0.932 0.927-1.298"></path>
<path stroke-linejoin="round" stroke-linecap="round" stroke-miterlimit="4" stroke-width="2.88" d="M1.333 1.333l29.333 29.333"></path>
</symbol>
<symbol id="icon-success" viewBox="0 0 32 32">
<path fill="#3cbf61" style="fill: var(--color1, #3cbf61)" d="M16 29.333c-7.364 0-13.333-5.969-13.333-13.333s5.969-13.333 13.333-13.333c7.364 0 13.333 5.969 13.333 13.333s-5.969 13.333-13.333 13.333zM14.459 21.98l9.427-9.428-1.885-1.885-7.541 7.543-3.772-3.772-1.885 1.885 5.657 5.657z"></path>
</symbol>

<symbol id="icon-error" viewBox="0 0 32 32">
<path fill="#d80027" style="fill: var(--color1, #d80027)" d="M16 29.333c-7.364 0-13.333-5.969-13.333-13.333s5.969-13.333 13.333-13.333c7.364 0 13.333 5.969 13.333 13.333s-5.969 13.333-13.333 13.333zM14.459 21.98l9.427-9.428-1.885-1.885-7.541 7.543-3.772-3.772-1.885 1.885 5.657 5.657z"></path>
</symbol>

<symbol id="icon-warning" viewBox="0 0 32 32">
<path d="M32 16c0 8.837-7.163 16-16 16s-16-7.163-16-16c0-8.837 7.163-16 16-16s16 7.163 16 16z"></path>
<path  stroke-linejoin="round" stroke-linecap="round" stroke-miterlimit="4" stroke-width="2.6667" d="M16 25.333v0.013M16 20v-13.333"></path>
</symbol>

<!-- icons UserMenu -->
<symbol id="icon-add-avatar" viewBox="0 0 33 32">
			<path fill="#e6533c" style="fill: var(--color3, #e6533c)" d="M11.238 0.428l4.69 1.356c0.339 0.098 0.699 0.099 1.038 0.002l4.83-1.375c0.845-0.241 1.744 0.136 2.166 0.906l2.506 4.577c0.168 0.307 0.419 0.561 0.723 0.734l3.986 2.258c0.771 0.437 1.133 1.352 0.869 2.198l-1.381 4.428c-0.113 0.363-0.114 0.752-0.002 1.115l1.394 4.521c0.258 0.836-0.094 1.739-0.849 2.18l-4.443 2.597c-0.303 0.177-0.551 0.436-0.715 0.746l-2.114 4.004c-0.409 0.775-1.298 1.165-2.145 0.941l-4.863-1.284c-0.317-0.084-0.651-0.083-0.968 0.002l-4.715 1.264c-0.867 0.232-1.777-0.179-2.175-0.983l-2.106-4.256c-0.177-0.357-0.462-0.649-0.816-0.834l-4.304-2.247c-0.786-0.411-1.179-1.314-0.943-2.169l1.255-4.548c0.089-0.322 0.090-0.662 0.005-0.985l-1.288-4.843c-0.221-0.833 0.151-1.71 0.904-2.129l4.422-2.46c0.322-0.179 0.584-0.448 0.754-0.775l2.090-4.007c0.414-0.794 1.331-1.187 2.192-0.938z">
			</path>
			<path fill="none" stroke="#efede8" style="stroke: var(--color2, #efede8)" stroke-linejoin="round" stroke-linecap="round" stroke-miterlimit="4" stroke-width="2" d="M16.5 10.75v10.5">
			</path>
			<path fill="none" stroke="#efede8" style="stroke: var(--color2, #efede8)" stroke-linejoin="round" stroke-linecap="round" stroke-miterlimit="4" stroke-width="2" d="M11.25 16h10.5">
			</path>
		</symbol>

<symbol id="icon-avatar" viewBox="0 0 32 32">
			<path fill="#efede8" style="fill: var(--color2, #efede8)" opacity="0.1" d="M16 5.333c1.415 0 2.771 0.562 3.771 1.562s1.562 2.357 1.562 3.771-0.562 2.771-1.562 3.771c-1 1-2.357 1.562-3.771 1.562s-2.771-0.562-3.771-1.562c-1-1-1.562-2.357-1.562-3.771s0.562-2.771 1.562-3.771c1-1 2.357-1.562 3.771-1.562zM16 26.667c0 0 10.667 0 10.667-2.667 0-3.2-5.2-6.667-10.667-6.667s-10.667 3.467-10.667 6.667c0 2.667 10.667 2.667 10.667 2.667z">
			</path>
</symbol>	

<symbol id="icon-calendar-white" viewBox="0 0 32 32">
			<path fill="none" stroke="#efede8" style="stroke: var(--color2, #efede8)" stroke-linejoin="round" stroke-linecap="round" stroke-miterlimit="4" stroke-width="2.6667" d="M25.333 5.333h-18.667c-1.473 0-2.667 1.194-2.667 2.667v18.667c0 1.473 1.194 2.667 2.667 2.667h18.667c1.473 0 2.667-1.194 2.667-2.667v-18.667c0-1.473-1.194-2.667-2.667-2.667z">
			</path>
			<path fill="none" stroke="#efede8" style="stroke: var(--color2, #efede8)" stroke-linejoin="round" stroke-linecap="round" stroke-miterlimit="4" stroke-width="2.6667" d="M21.333 2.667v5.333">
			</path>
			<path fill="none" stroke="#efede8" style="stroke: var(--color2, #efede8)" stroke-linejoin="round" stroke-linecap="round" stroke-miterlimit="4" stroke-width="2.6667" d="M10.667 2.667v5.333">
			</path>
			<path fill="none" stroke="#efede8" style="stroke: var(--color2, #efede8)" stroke-linejoin="round" stroke-linecap="round" stroke-miterlimit="4" stroke-width="2.6667" d="M4 13.333h24">
			</path>
</symbol>	

<symbol id="icon-logo" viewBox="0 0 286 32">
			<path fill="#e6533c" style="fill: var(--color3, #e6533c)" d="M80.941 13.714c1.040 0 1.882 0.843 1.882 1.882v0.807c0 1.040-0.843 1.882-1.882 1.882h-2.151c-1.039 0-1.882 0.843-1.882 1.882v5.378c0 1.040-0.843 1.882-1.882 1.882h-2.151c-1.040 0-1.882 0.843-1.882 1.882v0.807c0 1.040-0.843 1.882-1.882 1.882h-5.109c-1.040 0-1.882-0.843-1.882-1.882v-9.95c0-1.040-0.843-1.882-1.882-1.882h-37.647c-1.040 0-1.882 0.843-1.882 1.882v9.95c0 1.040-0.843 1.882-1.882 1.882h-5.109c-1.040 0-1.882-0.843-1.882-1.882v-0.807c0-1.040-0.843-1.882-1.882-1.882h-2.151c-1.040 0-1.882-0.843-1.882-1.882v-5.378c0-1.040-0.843-1.882-1.882-1.882h-2.151c-1.040 0-1.882-0.843-1.882-1.882v-0.807c0-1.040 0.843-1.882 1.882-1.882h2.151c1.040 0 1.882-0.843 1.882-1.882v-5.378c0-1.040 0.843-1.882 1.882-1.882h2.151c1.040 0 1.882-0.843 1.882-1.882v-0.807c0-1.040 0.843-1.882 1.882-1.882h5.109c1.040 0 1.882 0.843 1.882 1.882v9.95c0 1.040 0.843 1.882 1.882 1.882h37.647c1.040 0 1.882-0.843 1.882-1.882v-9.95c0-1.040 0.843-1.882 1.882-1.882h5.109c1.040 0 1.882 0.843 1.882 1.882v0.807c0 1.040 0.843 1.882 1.882 1.882h2.151c1.040 0 1.882 0.843 1.882 1.882v5.378c0 1.040 0.843 1.882 1.882 1.882h2.151z">
			</path>
			<path fill="#efede8" style="fill: var(--color2, #efede8)" d="M97.882 29.873v-26.353h9.412c1.431 0 2.723 0.358 3.878 1.073 1.167 0.715 2.089 1.675 2.767 2.88s1.016 2.529 1.016 3.972c0 1.481-0.351 2.824-1.054 4.028-0.69 1.192-1.619 2.146-2.786 2.861-1.167 0.703-2.441 1.054-3.821 1.054h-4.819v10.485h-4.593zM102.475 14.795h4.329c0.653 0 1.249-0.163 1.788-0.489s0.966-0.765 1.28-1.318c0.326-0.552 0.489-1.167 0.489-1.845 0-0.69-0.163-1.311-0.489-1.864-0.314-0.552-0.74-0.991-1.28-1.318s-1.136-0.489-1.788-0.489h-4.329v7.322z">
			</path>
			<path fill="#efede8" style="fill: var(--color2, #efede8)" d="M125.393 30.362c-1.732 0-3.313-0.446-4.744-1.336-1.418-0.891-2.554-2.083-3.407-3.576-0.841-1.506-1.261-3.169-1.261-4.988 0-1.38 0.245-2.667 0.734-3.859 0.489-1.205 1.161-2.259 2.014-3.162 0.866-0.916 1.87-1.631 3.012-2.146s2.359-0.772 3.652-0.772c1.732 0 3.307 0.445 4.725 1.336 1.431 0.891 2.566 2.089 3.407 3.595 0.853 1.506 1.28 3.175 1.28 5.007 0 1.368-0.245 2.648-0.734 3.84s-1.167 2.246-2.033 3.162c-0.853 0.904-1.851 1.613-2.993 2.127-1.129 0.514-2.347 0.772-3.652 0.772zM125.393 25.769c0.916 0 1.738-0.245 2.466-0.734s1.299-1.136 1.713-1.939c0.427-0.803 0.64-1.681 0.64-2.635 0-0.979-0.219-1.87-0.659-2.673-0.427-0.816-1.010-1.462-1.751-1.939-0.728-0.489-1.531-0.734-2.409-0.734-0.904 0-1.719 0.245-2.447 0.734s-1.305 1.142-1.732 1.958c-0.427 0.816-0.64 1.7-0.64 2.654 0 0.991 0.22 1.889 0.659 2.692s1.023 1.443 1.751 1.92c0.741 0.464 1.544 0.696 2.409 0.696z">
			</path>
			<path fill="#efede8" style="fill: var(--color2, #efede8)" d="M146.566 29.873h-4.555l-6.287-18.824h4.499l4.085 12.179 4.066-12.179h4.536l4.066 12.179 4.085-12.179h4.499l-6.287 18.824h-4.555l-4.085-12.235-4.066 12.235z">
			</path>
			<path fill="#efede8" style="fill: var(--color2, #efede8)" d="M175.907 30.362c-1.732 0-3.313-0.446-4.744-1.336-1.418-0.891-2.554-2.089-3.407-3.595-0.841-1.506-1.261-3.169-1.261-4.988 0-1.368 0.245-2.648 0.734-3.84 0.489-1.205 1.161-2.259 2.014-3.162 0.866-0.916 1.87-1.631 3.012-2.146s2.359-0.772 3.652-0.772c1.468 0 2.811 0.314 4.028 0.941 1.23 0.615 2.271 1.462 3.125 2.541s1.474 2.309 1.864 3.689c0.389 1.38 0.477 2.824 0.264 4.329h-13.76c0.176 0.703 0.464 1.336 0.866 1.901 0.401 0.552 0.91 0.998 1.525 1.336 0.615 0.326 1.311 0.496 2.089 0.508 0.803 0.013 1.531-0.176 2.184-0.565 0.665-0.401 1.217-0.941 1.656-1.619l4.687 1.092c-0.766 1.669-1.908 3.037-3.426 4.104-1.518 1.054-3.219 1.581-5.101 1.581zM171.277 18.579h9.261c-0.138-0.753-0.433-1.431-0.885-2.033-0.439-0.615-0.985-1.104-1.638-1.468s-1.355-0.546-2.108-0.546-1.449 0.182-2.089 0.546c-0.64 0.351-1.186 0.835-1.638 1.449-0.439 0.602-0.741 1.286-0.904 2.052z">
			</path>
			<path fill="#efede8" style="fill: var(--color2, #efede8)" d="M188.269 29.873l-0.019-18.824h4.593l0.019 1.675c0.64-0.678 1.404-1.211 2.296-1.6 0.89-0.402 1.85-0.602 2.88-0.602 0.689 0 1.38 0.1 2.071 0.301l-1.807 4.631c-0.478-0.188-0.954-0.282-1.431-0.282-0.742 0-1.419 0.182-2.033 0.546-0.602 0.351-1.086 0.834-1.449 1.449-0.352 0.602-0.527 1.274-0.527 2.014v10.692h-4.593z">
			</path>
			<path fill="#efede8" style="fill: var(--color2, #efede8)" d="M202.221 29.873v-26.353h9.412c1.431 0 2.722 0.358 3.878 1.073 1.167 0.715 2.089 1.675 2.767 2.88s1.016 2.529 1.016 3.972c0 1.481-0.352 2.824-1.054 4.028-0.691 1.192-1.619 2.146-2.786 2.861-1.167 0.703-2.441 1.054-3.821 1.054h-4.819v10.485h-4.593zM206.814 14.795h4.329c0.651 0 1.248-0.163 1.788-0.489 0.538-0.326 0.966-0.765 1.28-1.318 0.326-0.552 0.489-1.167 0.489-1.845 0-0.69-0.164-1.311-0.489-1.864-0.314-0.552-0.742-0.991-1.28-1.318-0.54-0.326-1.137-0.489-1.788-0.489h-4.329v7.322z">
			</path>
			<path fill="#efede8" style="fill: var(--color2, #efede8)" d="M221.248 22.908v-11.859h4.593v10.654c0 0.74 0.181 1.418 0.546 2.033 0.363 0.602 0.847 1.086 1.449 1.449 0.614 0.351 1.286 0.527 2.014 0.527 0.753 0 1.431-0.176 2.033-0.527 0.6-0.364 1.084-0.847 1.449-1.449 0.363-0.615 0.546-1.293 0.546-2.033v-10.654h4.593l0.019 18.824h-4.595l-0.017-1.713c-0.653 0.678-1.425 1.217-2.315 1.619-0.892 0.389-1.845 0.584-2.861 0.584-1.368 0-2.618-0.333-3.748-0.998-1.128-0.678-2.031-1.575-2.709-2.692-0.666-1.129-0.998-2.384-0.998-3.765z">
			</path>
			<path fill="#efede8" style="fill: var(--color2, #efede8)" d="M242.368 29.873v-28.235h4.593v28.235h-4.593z">
			</path>
			<path fill="#efede8" style="fill: var(--color2, #efede8)" d="M257.039 30.212c-0.979-0.063-1.928-0.257-2.842-0.584-0.904-0.339-1.707-0.797-2.409-1.374-0.704-0.577-1.242-1.267-1.619-2.071l3.878-1.656c0.151 0.251 0.395 0.521 0.734 0.809 0.339 0.276 0.74 0.508 1.205 0.696 0.476 0.188 0.998 0.282 1.562 0.282 0.476 0 0.928-0.063 1.355-0.188 0.439-0.138 0.791-0.345 1.054-0.621 0.275-0.276 0.414-0.634 0.414-1.073 0-0.464-0.164-0.822-0.489-1.073-0.314-0.264-0.715-0.458-1.205-0.584-0.478-0.138-0.941-0.264-1.393-0.376-1.193-0.238-2.304-0.609-3.332-1.111-1.016-0.502-1.839-1.148-2.466-1.939-0.616-0.803-0.922-1.769-0.922-2.899 0-1.242 0.326-2.315 0.979-3.219 0.664-0.904 1.525-1.6 2.579-2.089 1.065-0.489 2.214-0.734 3.445-0.734 1.493 0 2.861 0.314 4.104 0.941 1.254 0.615 2.246 1.487 2.974 2.616l-3.633 2.146c-0.177-0.301-0.422-0.577-0.734-0.828-0.314-0.264-0.672-0.477-1.073-0.64-0.403-0.176-0.823-0.276-1.261-0.301-0.565-0.025-1.080 0.025-1.544 0.151-0.465 0.125-0.841 0.339-1.129 0.64-0.277 0.301-0.414 0.703-0.414 1.205 0 0.477 0.188 0.834 0.565 1.073 0.376 0.226 0.828 0.402 1.355 0.527 0.538 0.125 1.054 0.264 1.544 0.414 1.103 0.364 2.138 0.809 3.106 1.336 0.979 0.527 1.762 1.173 2.353 1.939 0.589 0.766 0.872 1.681 0.847 2.748 0 1.217-0.365 2.284-1.092 3.2-0.728 0.904-1.67 1.594-2.824 2.071-1.143 0.477-2.366 0.665-3.671 0.565z">
			</path>
			<path fill="#efede8" style="fill: var(--color2, #efede8)" d="M275.834 30.362c-1.732 0-3.313-0.446-4.744-1.336-1.419-0.891-2.554-2.089-3.407-3.595-0.841-1.506-1.261-3.169-1.261-4.988 0-1.368 0.245-2.648 0.734-3.84 0.489-1.205 1.16-2.259 2.014-3.162 0.866-0.916 1.869-1.631 3.012-2.146 1.141-0.515 2.359-0.772 3.652-0.772 1.468 0 2.81 0.314 4.028 0.941 1.229 0.615 2.27 1.462 3.125 2.541 0.853 1.079 1.474 2.309 1.864 3.689 0.388 1.38 0.476 2.824 0.264 4.329h-13.76c0.175 0.703 0.463 1.336 0.866 1.901 0.401 0.552 0.909 0.998 1.525 1.336 0.614 0.326 1.31 0.496 2.089 0.508 0.802 0.013 1.53-0.176 2.184-0.565 0.664-0.401 1.216-0.941 1.656-1.619l4.687 1.092c-0.766 1.669-1.909 3.037-3.426 4.104-1.519 1.054-3.219 1.581-5.101 1.581zM271.204 18.579h9.261c-0.139-0.753-0.433-1.431-0.885-2.033-0.44-0.615-0.986-1.104-1.638-1.468-0.653-0.364-1.355-0.546-2.108-0.546s-1.449 0.182-2.089 0.546c-0.64 0.351-1.186 0.835-1.638 1.449-0.44 0.602-0.742 1.286-0.904 2.052z">
			</path>
</symbol>

<symbol id="icon-logo-white" viewBox="0 0 286 32">
			<path fill="#efede8" style="fill: var(--color1, #efede8)" d="M80.941 13.714c1.040 0 1.882 0.843 1.882 1.882v0.807c0 1.040-0.843 1.882-1.882 1.882h-2.151c-1.039 0-1.882 0.843-1.882 1.882v5.378c0 1.040-0.843 1.882-1.882 1.882h-2.151c-1.040 0-1.882 0.843-1.882 1.882v0.807c0 1.040-0.843 1.882-1.882 1.882h-5.109c-1.040 0-1.882-0.843-1.882-1.882v-9.95c0-1.040-0.843-1.882-1.882-1.882h-37.647c-1.040 0-1.882 0.843-1.882 1.882v9.95c0 1.040-0.843 1.882-1.882 1.882h-5.109c-1.040 0-1.882-0.843-1.882-1.882v-0.807c0-1.040-0.843-1.882-1.882-1.882h-2.151c-1.040 0-1.882-0.843-1.882-1.882v-5.378c0-1.040-0.843-1.882-1.882-1.882h-2.151c-1.040 0-1.882-0.843-1.882-1.882v-0.807c0-1.040 0.843-1.882 1.882-1.882h2.151c1.040 0 1.882-0.843 1.882-1.882v-5.378c0-1.040 0.843-1.882 1.882-1.882h2.151c1.040 0 1.882-0.843 1.882-1.882v-0.807c0-1.040 0.843-1.882 1.882-1.882h5.109c1.040 0 1.882 0.843 1.882 1.882v9.95c0 1.040 0.843 1.882 1.882 1.882h37.647c1.040 0 1.882-0.843 1.882-1.882v-9.95c0-1.040 0.843-1.882 1.882-1.882h5.109c1.040 0 1.882 0.843 1.882 1.882v0.807c0 1.040 0.843 1.882 1.882 1.882h2.151c1.040 0 1.882 0.843 1.882 1.882v5.378c0 1.040 0.843 1.882 1.882 1.882h2.151z">
			</path>
			<path fill="#efede8" style="fill: var(--color1, #efede8)" d="M97.882 29.873v-26.353h9.412c1.431 0 2.723 0.358 3.878 1.073 1.167 0.715 2.089 1.675 2.767 2.88s1.016 2.529 1.016 3.972c0 1.481-0.351 2.824-1.054 4.028-0.69 1.192-1.619 2.146-2.786 2.861-1.167 0.703-2.441 1.054-3.821 1.054h-4.819v10.485h-4.593zM102.475 14.796h4.329c0.653 0 1.249-0.163 1.788-0.489s0.966-0.765 1.28-1.318c0.326-0.552 0.489-1.167 0.489-1.845 0-0.69-0.163-1.311-0.489-1.864-0.314-0.552-0.74-0.991-1.28-1.318s-1.136-0.489-1.788-0.489h-4.329v7.322z">
			</path>
			<path fill="#efede8" style="fill: var(--color1, #efede8)" d="M125.393 30.363c-1.732 0-3.313-0.445-4.744-1.336-1.418-0.891-2.554-2.083-3.407-3.576-0.841-1.506-1.261-3.169-1.261-4.988 0-1.38 0.245-2.667 0.734-3.859 0.489-1.205 1.161-2.259 2.014-3.162 0.866-0.916 1.87-1.631 3.012-2.146s2.359-0.772 3.652-0.772c1.732 0 3.307 0.446 4.725 1.336 1.431 0.891 2.566 2.089 3.407 3.595 0.853 1.506 1.28 3.175 1.28 5.007 0 1.368-0.245 2.648-0.734 3.84s-1.167 2.246-2.033 3.162c-0.853 0.904-1.851 1.613-2.993 2.127-1.129 0.515-2.347 0.772-3.652 0.772zM125.393 25.77c0.916 0 1.738-0.245 2.466-0.734s1.299-1.136 1.713-1.939c0.427-0.803 0.64-1.681 0.64-2.635 0-0.979-0.219-1.87-0.659-2.673-0.427-0.816-1.010-1.462-1.751-1.939-0.728-0.489-1.531-0.734-2.409-0.734-0.904 0-1.719 0.245-2.447 0.734s-1.305 1.142-1.732 1.958c-0.427 0.816-0.64 1.7-0.64 2.654 0 0.991 0.22 1.889 0.659 2.692s1.023 1.443 1.751 1.92c0.741 0.464 1.544 0.696 2.409 0.696z">
			</path>
			<path fill="#efede8" style="fill: var(--color1, #efede8)" d="M146.566 29.873h-4.555l-6.287-18.823h4.499l4.085 12.179 4.066-12.179h4.536l4.066 12.179 4.085-12.179h4.499l-6.287 18.823h-4.555l-4.085-12.235-4.066 12.235z">
			</path>
			<path fill="#efede8" style="fill: var(--color1, #efede8)" d="M175.907 30.363c-1.732 0-3.313-0.445-4.744-1.336-1.418-0.891-2.554-2.089-3.407-3.595-0.841-1.506-1.261-3.169-1.261-4.988 0-1.368 0.245-2.648 0.734-3.84 0.489-1.205 1.161-2.259 2.014-3.162 0.866-0.916 1.87-1.631 3.012-2.146s2.359-0.772 3.652-0.772c1.468 0 2.811 0.314 4.028 0.941 1.23 0.615 2.271 1.462 3.125 2.541s1.474 2.309 1.864 3.689c0.389 1.38 0.477 2.823 0.264 4.329h-13.76c0.176 0.703 0.464 1.336 0.866 1.901 0.401 0.552 0.91 0.998 1.525 1.336 0.615 0.326 1.311 0.496 2.089 0.508 0.803 0.013 1.531-0.176 2.184-0.565 0.665-0.401 1.217-0.941 1.656-1.619l4.687 1.092c-0.766 1.669-1.908 3.037-3.426 4.104-1.518 1.054-3.219 1.581-5.101 1.581zM171.277 18.579h9.261c-0.138-0.753-0.433-1.431-0.885-2.033-0.439-0.615-0.985-1.104-1.638-1.468s-1.355-0.546-2.108-0.546-1.449 0.182-2.089 0.546c-0.64 0.351-1.186 0.835-1.638 1.449-0.439 0.602-0.741 1.286-0.904 2.052z">
			</path>
			<path fill="#efede8" style="fill: var(--color1, #efede8)" d="M188.269 29.873l-0.019-18.823h4.593l0.019 1.675c0.64-0.678 1.404-1.211 2.296-1.6 0.89-0.402 1.85-0.602 2.88-0.602 0.689 0 1.38 0.1 2.071 0.301l-1.807 4.631c-0.478-0.188-0.954-0.282-1.431-0.282-0.742 0-1.419 0.182-2.033 0.546-0.602 0.351-1.086 0.834-1.449 1.449-0.352 0.602-0.527 1.274-0.527 2.014v10.692h-4.593z">
			</path>
			<path fill="#efede8" style="fill: var(--color1, #efede8)" d="M202.221 29.873v-26.353h9.412c1.431 0 2.722 0.358 3.878 1.073 1.167 0.715 2.089 1.675 2.767 2.88s1.016 2.529 1.016 3.972c0 1.481-0.352 2.824-1.054 4.028-0.691 1.192-1.619 2.146-2.786 2.861-1.167 0.703-2.441 1.054-3.821 1.054h-4.819v10.485h-4.593zM206.814 14.796h4.329c0.651 0 1.248-0.163 1.788-0.489 0.538-0.326 0.966-0.765 1.28-1.318 0.326-0.552 0.489-1.167 0.489-1.845 0-0.69-0.164-1.311-0.489-1.864-0.314-0.552-0.742-0.991-1.28-1.318-0.54-0.326-1.137-0.489-1.788-0.489h-4.329v7.322z">
			</path>
			<path fill="#efede8" style="fill: var(--color1, #efede8)" d="M221.248 22.908v-11.859h4.593v10.654c0 0.741 0.181 1.418 0.546 2.033 0.363 0.602 0.847 1.086 1.449 1.449 0.614 0.351 1.286 0.527 2.014 0.527 0.753 0 1.431-0.176 2.033-0.527 0.6-0.364 1.084-0.847 1.449-1.449 0.363-0.615 0.546-1.292 0.546-2.033v-10.654h4.593l0.019 18.824h-4.595l-0.017-1.713c-0.653 0.678-1.425 1.217-2.315 1.619-0.892 0.389-1.845 0.584-2.861 0.584-1.368 0-2.618-0.332-3.748-0.998-1.128-0.678-2.031-1.575-2.709-2.692-0.666-1.129-0.998-2.384-0.998-3.765z">
			</path>
			<path fill="#efede8" style="fill: var(--color1, #efede8)" d="M242.368 29.873v-28.235h4.593v28.235h-4.593z">
			</path>
			<path fill="#efede8" style="fill: var(--color1, #efede8)" d="M257.039 30.212c-0.979-0.063-1.928-0.257-2.842-0.584-0.904-0.339-1.707-0.797-2.409-1.374-0.704-0.577-1.242-1.267-1.619-2.071l3.878-1.656c0.151 0.251 0.395 0.521 0.734 0.809 0.339 0.276 0.74 0.508 1.205 0.696 0.476 0.188 0.998 0.282 1.562 0.282 0.476 0 0.928-0.063 1.355-0.188 0.439-0.138 0.791-0.345 1.054-0.621 0.275-0.276 0.414-0.634 0.414-1.073 0-0.464-0.164-0.822-0.489-1.073-0.314-0.264-0.715-0.458-1.205-0.584-0.478-0.138-0.941-0.264-1.393-0.376-1.193-0.238-2.304-0.609-3.332-1.111-1.016-0.502-1.839-1.148-2.466-1.939-0.616-0.803-0.922-1.769-0.922-2.899 0-1.242 0.326-2.315 0.979-3.219 0.664-0.904 1.525-1.6 2.579-2.089 1.065-0.489 2.214-0.734 3.445-0.734 1.493 0 2.861 0.314 4.104 0.941 1.254 0.615 2.246 1.487 2.974 2.616l-3.633 2.146c-0.177-0.301-0.422-0.577-0.734-0.828-0.314-0.264-0.672-0.477-1.073-0.64-0.403-0.176-0.823-0.276-1.261-0.301-0.565-0.025-1.080 0.025-1.544 0.151-0.465 0.125-0.841 0.339-1.129 0.64-0.277 0.301-0.414 0.703-0.414 1.205 0 0.477 0.188 0.834 0.565 1.073 0.376 0.226 0.828 0.402 1.355 0.527 0.538 0.125 1.054 0.264 1.544 0.414 1.103 0.364 2.138 0.809 3.106 1.336 0.979 0.527 1.762 1.173 2.353 1.939 0.589 0.766 0.872 1.682 0.847 2.748 0 1.217-0.365 2.284-1.092 3.2-0.728 0.904-1.67 1.594-2.824 2.071-1.143 0.477-2.366 0.665-3.671 0.565z">
			</path>
			<path fill="#efede8" style="fill: var(--color1, #efede8)" d="M275.834 30.363c-1.732 0-3.313-0.445-4.744-1.336-1.419-0.891-2.554-2.089-3.407-3.595-0.841-1.506-1.261-3.169-1.261-4.988 0-1.368 0.245-2.648 0.734-3.84 0.489-1.205 1.16-2.259 2.014-3.162 0.866-0.916 1.869-1.631 3.012-2.146 1.141-0.515 2.359-0.772 3.652-0.772 1.468 0 2.81 0.314 4.028 0.941 1.229 0.615 2.27 1.462 3.125 2.541 0.853 1.079 1.474 2.309 1.864 3.689 0.388 1.38 0.476 2.823 0.264 4.329h-13.76c0.175 0.703 0.463 1.336 0.866 1.901 0.401 0.552 0.909 0.998 1.525 1.336 0.614 0.326 1.31 0.496 2.089 0.508 0.802 0.013 1.53-0.176 2.184-0.565 0.664-0.401 1.216-0.941 1.656-1.619l4.687 1.092c-0.766 1.669-1.909 3.037-3.426 4.104-1.519 1.054-3.219 1.581-5.101 1.581zM271.204 18.579h9.261c-0.139-0.753-0.433-1.431-0.885-2.033-0.44-0.615-0.986-1.104-1.638-1.468-0.653-0.364-1.355-0.546-2.108-0.546s-1.449 0.182-2.089 0.546c-0.64 0.351-1.186 0.835-1.638 1.449-0.44 0.602-0.742 1.286-0.904 2.052z">
			</path>
		</symbol>


<symbol id="icon-logout" viewBox="0 0 32 32">
			<path fill="none" stroke="#e6533c" style="stroke: var(--color3, #e6533c)" stroke-linejoin="round" stroke-linecap="round" stroke-miterlimit="4" stroke-width="2.4" d="M12 4h-1.6c-2.24 0-3.36 0-4.216 0.436-0.753 0.383-1.365 0.995-1.748 1.748-0.436 0.856-0.436 1.976-0.436 4.216v11.2c0 2.24 0 3.36 0.436 4.216 0.383 0.753 0.995 1.364 1.748 1.748 0.856 0.436 1.976 0.436 4.216 0.436h1.6">
			</path>
			<path fill="none" stroke="#e6533c" style="stroke: var(--color3, #e6533c)" stroke-linejoin="round" stroke-linecap="round" stroke-miterlimit="4" stroke-width="2.4" d="M21.333 22.667l6.667-6.667M28 16l-6.667-6.667M28 16h-16">
			</path>
</symbol>

<symbol id="icon-logout-white" viewBox="0 0 32 32">
			<path fill="none" stroke="#efede8" style="stroke: var(--color1, #efede8)" stroke-linejoin="round" stroke-linecap="round" stroke-miterlimit="4" stroke-width="2.4" d="M12 4h-1.6c-2.24 0-3.36 0-4.216 0.436-0.753 0.383-1.365 0.995-1.748 1.748-0.436 0.856-0.436 1.976-0.436 4.216v11.2c0 2.24 0 3.36 0.436 4.216 0.383 0.753 0.995 1.364 1.748 1.748 0.856 0.436 1.976 0.436 4.216 0.436h1.6">
			</path>
			<path fill="none" stroke="#efede8" style="stroke: var(--color1, #efede8)" stroke-linejoin="round" stroke-linecap="round" stroke-miterlimit="4" stroke-width="2.4" d="M21.333 22.667l6.667-6.667M28 16l-6.667-6.667M28 16h-16">
			</path>
</symbol>

<symbol id="icon-settings" viewBox="0 0 32 32">
			<path fill="none" stroke="#efede8" style="stroke: var(--color2, #efede8)" stroke-linejoin="round" stroke-linecap="round" stroke-miterlimit="4" stroke-width="2.2857" d="M16 20c2.209 0 4-1.791 4-4s-1.791-4-4-4c-2.209 0-4 1.791-4 4s1.791 4 4 4z">
			</path>
			<path fill="none" stroke="#efede8" style="stroke: var(--color2, #efede8)" stroke-linejoin="round" stroke-linecap="round" stroke-miterlimit="4" stroke-width="2.2857" d="M24.969 19.636c-0.161 0.366-0.209 0.771-0.138 1.164s0.259 0.756 0.538 1.042l0.073 0.073c0.225 0.225 0.404 0.493 0.526 0.787s0.185 0.61 0.185 0.928-0.063 0.634-0.185 0.928c-0.122 0.294-0.301 0.562-0.526 0.787s-0.493 0.404-0.787 0.526c-0.294 0.122-0.61 0.185-0.928 0.185s-0.634-0.063-0.928-0.185c-0.294-0.122-0.562-0.301-0.787-0.526l-0.073-0.073c-0.286-0.279-0.648-0.467-1.042-0.538s-0.799-0.023-1.164 0.138c-0.358 0.154-0.664 0.409-0.88 0.734s-0.331 0.706-0.333 1.096v0.206c0 0.643-0.255 1.26-0.71 1.714s-1.071 0.71-1.714 0.71-1.26-0.255-1.714-0.71c-0.455-0.455-0.71-1.071-0.71-1.714v-0.109c-0.009-0.401-0.139-0.79-0.373-1.117s-0.56-0.575-0.936-0.713c-0.366-0.161-0.771-0.209-1.164-0.138s-0.756 0.259-1.042 0.538l-0.073 0.073c-0.225 0.225-0.492 0.404-0.787 0.526s-0.61 0.185-0.928 0.185-0.634-0.063-0.928-0.185c-0.294-0.122-0.562-0.301-0.787-0.526s-0.404-0.492-0.526-0.787c-0.122-0.294-0.185-0.61-0.185-0.928s0.063-0.634 0.185-0.928c0.122-0.294 0.301-0.562 0.526-0.787l0.073-0.073c0.279-0.286 0.467-0.649 0.538-1.042s0.023-0.799-0.138-1.164c-0.154-0.358-0.409-0.664-0.734-0.88s-0.706-0.331-1.096-0.333h-0.206c-0.643 0-1.26-0.255-1.714-0.71s-0.71-1.071-0.71-1.714 0.255-1.26 0.71-1.714c0.455-0.455 1.071-0.71 1.714-0.71h0.109c0.401-0.009 0.79-0.139 1.117-0.373s0.575-0.56 0.714-0.936c0.161-0.366 0.21-0.771 0.138-1.164s-0.259-0.756-0.538-1.042l-0.073-0.073c-0.225-0.225-0.404-0.492-0.526-0.787s-0.185-0.61-0.185-0.928c0-0.319 0.063-0.634 0.185-0.928s0.301-0.562 0.526-0.787c0.225-0.225 0.492-0.404 0.787-0.526s0.61-0.185 0.928-0.185c0.319 0 0.634 0.063 0.928 0.185s0.562 0.301 0.787 0.526l0.073 0.073c0.286 0.279 0.649 0.467 1.042 0.538s0.799 0.023 1.164-0.138h0.097c0.358-0.154 0.664-0.409 0.88-0.734s0.331-0.706 0.333-1.096v-0.206c0-0.643 0.255-1.26 0.71-1.714s1.071-0.71 1.714-0.71 1.26 0.255 1.714 0.71c0.455 0.455 0.71 1.071 0.71 1.714v0.109c0.002 0.39 0.117 0.771 0.332 1.096s0.521 0.58 0.88 0.734c0.366 0.161 0.771 0.209 1.164 0.138s0.756-0.259 1.042-0.538l0.073-0.073c0.225-0.225 0.493-0.404 0.787-0.526s0.61-0.185 0.928-0.185c0.319 0 0.634 0.063 0.928 0.185s0.562 0.301 0.787 0.526c0.226 0.225 0.404 0.492 0.526 0.787s0.185 0.61 0.185 0.928-0.063 0.634-0.185 0.928c-0.122 0.294-0.301 0.562-0.526 0.787l-0.073 0.073c-0.279 0.286-0.467 0.649-0.538 1.042s-0.023 0.799 0.138 1.164v0.097c0.154 0.358 0.409 0.664 0.734 0.88s0.706 0.331 1.096 0.333h0.206c0.643 0 1.26 0.255 1.714 0.71s0.71 1.071 0.71 1.714-0.255 1.26-0.71 1.714c-0.455 0.455-1.071 0.71-1.714 0.71h-0.109c-0.39 0.002-0.771 0.117-1.096 0.332s-0.58 0.521-0.734 0.88z">
			</path>
</symbol>

<symbol id="icon-mobile-menu" viewBox="0 0 32 32">
			<path fill="none" stroke="#e6533c" style="stroke: var(--color3, #e6533c)" stroke-linejoin="round" stroke-linecap="round" stroke-miterlimit="4" stroke-width="2" d="M4 16h16M4 8h24M4 24h24">
			</path>
</symbol>

<symbol id="icon-close" viewBox="0 0 32 32">
			<path fill="none" stroke-linejoin="round" stroke-linecap="round" stroke-miterlimit="4" stroke-width="2.4615" d="M24 8l-16 16">
			</path>
			<path fill="none" stroke-linejoin="round" stroke-linecap="round" stroke-miterlimit="4" stroke-width="2.4615" d="M8 8l16 16">
			</path>
</symbol>

		<!-- icons UserProfile -->
<symbol id="icon-warning" viewBox="0 0 32 32">
<path d="M32 16c0 8.837-7.163 16-16 16s-16-7.163-16-16c0-8.837 7.163-16 16-16s16 7.163 16 16z"></path>
<path  stroke-linejoin="round" stroke-linecap="round" stroke-miterlimit="4" stroke-width="2.6667" d="M16 25.333v0.013M16 20v-13.333"></path>
</symbol>

<symbol id="icon-add-avatar" viewBox="0 0 33 32">
			<path fill="#e6533c" style="fill: var(--color3, #e6533c)" d="M11.238 0.428l4.69 1.356c0.339 0.098 0.699 0.099 1.038 0.002l4.83-1.375c0.845-0.241 1.744 0.136 2.166 0.906l2.506 4.577c0.168 0.307 0.419 0.561 0.723 0.734l3.986 2.258c0.771 0.437 1.133 1.352 0.869 2.198l-1.381 4.428c-0.113 0.363-0.114 0.752-0.002 1.115l1.394 4.521c0.258 0.836-0.094 1.739-0.849 2.18l-4.443 2.597c-0.303 0.177-0.551 0.436-0.715 0.746l-2.114 4.004c-0.409 0.775-1.298 1.165-2.145 0.941l-4.863-1.284c-0.317-0.084-0.651-0.083-0.968 0.002l-4.715 1.264c-0.867 0.232-1.777-0.179-2.175-0.983l-2.106-4.256c-0.177-0.357-0.462-0.649-0.816-0.834l-4.304-2.247c-0.786-0.411-1.179-1.314-0.943-2.169l1.255-4.548c0.089-0.322 0.090-0.662 0.005-0.985l-1.288-4.843c-0.221-0.833 0.151-1.71 0.904-2.129l4.422-2.46c0.322-0.179 0.584-0.448 0.754-0.775l2.090-4.007c0.414-0.794 1.331-1.187 2.192-0.938z">
			</path>
			<path fill="none" stroke="#efede8" style="stroke: var(--color2, #efede8)" stroke-linejoin="round" stroke-linecap="round" stroke-miterlimit="4" stroke-width="2" d="M16.5 10.75v10.5">
			</path>
			<path fill="none" stroke="#efede8" style="stroke: var(--color2, #efede8)" stroke-linejoin="round" stroke-linecap="round" stroke-miterlimit="4" stroke-width="2" d="M11.25 16h10.5">
			</path>
</symbol>

<symbol id="icon-avatar" viewBox="0 0 32 32">
			<path fill="#efede8" style="fill: var(--color2, #efede8)" opacity="0.1" d="M16 5.333c1.415 0 2.771 0.562 3.771 1.562s1.562 2.357 1.562 3.771-0.562 2.771-1.562 3.771c-1 1-2.357 1.562-3.771 1.562s-2.771-0.562-3.771-1.562c-1-1-1.562-2.357-1.562-3.771s0.562-2.771 1.562-3.771c1-1 2.357-1.562 3.771-1.562zM16 26.667c0 0 10.667 0 10.667-2.667 0-3.2-5.2-6.667-10.667-6.667s-10.667 3.467-10.667 6.667c0 2.667 10.667 2.667 10.667 2.667z">
			</path>
</symbol>	
		
		<!-- icons Statistics -->
<symbol viewBox="0 0 15.830666 17.498945" id="icon-fluent-food">
<path id="Vector" d="M14.9974 2.5C15.2015 2.50003 15.3985 2.57496 15.551 2.7106C15.7036 2.84623 15.801 3.03312 15.8249 3.23583L15.8307 3.33333V16.6667C15.8305 16.8791 15.7492 17.0834 15.6034 17.2378C15.4575 17.3923 15.2583 17.4852 15.0462 17.4976C14.8342 17.5101 14.6254 17.4411 14.4625 17.3048C14.2997 17.1685 14.195 16.9751 14.1699 16.7642L14.1641 16.6667V12.5H13.3307C13.1266 12.5 12.9296 12.425 12.7771 12.2894C12.6246 12.1538 12.5271 11.9669 12.5032 11.7642L12.4974 11.6667V6.66667C12.4974 4.825 13.7474 2.5 14.9974 2.5ZM9.9974 2.5C10.2015 2.50003 10.3985 2.57496 10.551 2.7106C10.7036 2.84623 10.801 3.03312 10.8249 3.23583L10.8307 3.33333V7.5C10.8306 8.23906 10.585 8.95715 10.1325 9.54148C9.68003 10.1258 9.04625 10.5433 8.33073 10.7283V16.6667C8.33049 16.8791 8.24916 17.0834 8.10336 17.2378C7.95755 17.3923 7.75827 17.4852 7.54623 17.4976C7.3342 17.5101 7.12541 17.4411 6.96254 17.3048C6.79966 17.1685 6.69498 16.9751 6.6699 16.7642L6.66406 16.6667V10.7283C5.97694 10.5507 5.3644 10.1585 4.91553 9.60876C4.46666 9.05903 4.20487 8.38043 4.16823 7.67167L4.16406 7.5V3.33333C4.1643 3.12093 4.24563 2.91664 4.39144 2.76219C4.53724 2.60775 4.73652 2.5148 4.94856 2.50236C5.16059 2.48991 5.36938 2.5589 5.53226 2.69522C5.69513 2.83155 5.79981 3.02492 5.8249 3.23583L5.83073 3.33333V7.5C5.83074 7.79255 5.90775 8.07995 6.05403 8.33331C6.20031 8.58667 6.4107 8.79706 6.66406 8.94333V3.33333C6.6643 3.12093 6.74563 2.91664 6.89144 2.76219C7.03724 2.60775 7.23652 2.5148 7.44856 2.50236C7.66059 2.48991 7.86938 2.5589 8.03226 2.69522C8.19513 2.83155 8.29981 3.02492 8.3249 3.23583L8.33073 3.33333L8.33156 8.94333C8.56412 8.80891 8.76073 8.62027 8.90467 8.39349C9.0486 8.1667 9.13559 7.90848 9.15823 7.64083L9.16406 7.5V3.33333C9.16406 3.11232 9.25186 2.90036 9.40814 2.74408C9.56442 2.5878 9.77638 2.5 9.9974 2.5Z" fill="#EF8964"/>
</symbol>	

<symbol viewBox="0 0 20 17" id="icon-dumbbell">
<path id="Vector" d="M3.25 5H1.75C1.33438 5 1 5.33437 1 5.75V9H0.25C0.1125 9 0 9.1125 0 9.25V10.75C0 10.8875 0.1125 11 0.25 11H1V14.25C1 14.6656 1.33438 15 1.75 15H3.25C3.66563 15 4 14.6656 4 14.25V5.75C4 5.33437 3.66563 5 3.25 5ZM19.75 9H19V5.75C19 5.33437 18.6656 5 18.25 5H16.75C16.3344 5 16 5.33437 16 5.75V14.25C16 14.6656 16.3344 15 16.75 15H18.25C18.6656 15 19 14.6656 19 14.25V11H19.75C19.8875 11 20 10.8875 20 10.75V9.25C20 9.1125 19.8875 9 19.75 9ZM14.25 3H12.75C12.3344 3 12 3.33437 12 3.75V9H8V3.75C8 3.33437 7.66563 3 7.25 3H5.75C5.33437 3 5 3.33437 5 3.75V16.25C5 16.6656 5.33437 17 5.75 17H7.25C7.66563 17 8 16.6656 8 16.25V11H12V16.25C12 16.6656 12.3344 17 12.75 17H14.25C14.6656 17 15 16.6656 15 16.25V3.75C15 3.33437 14.6656 3 14.25 3Z" fill="#EF8964"/>
</symbol>

<!-- icons pagination -->
<symbol id="icon-pagination" viewBox="0 0 32 32">
<path fill="none" stroke="#e6533c" style="stroke: var(--color1, #e6533c)" stroke-linejoin="miter" stroke-linecap="butt" stroke-miterlimit="4" stroke-width="2.2857" d="M30.857 16c0 8.205-6.652 14.857-14.857 14.857s-14.857-6.652-14.857-14.857c0-8.205 6.652-14.857 14.857-14.857s14.857 6.652 14.857 14.857z"></path>
<path fill="#e6533c" style="fill: var(--color1, #e6533c)" d="M25.143 16c0 5.049-4.093 9.143-9.143 9.143s-9.143-4.093-9.143-9.143c0-5.049 4.093-9.143 9.143-9.143s9.143 4.093 9.143 9.143z"></path>
</symbol>

<symbol id="icon-arrow-right" viewBox="0 0 42 32">
<path fill="none" stroke="#e6533c" style="stroke: var(--color3, #e6533c)" stroke-linejoin="round" stroke-linecap="round" stroke-miterlimit="4" stroke-width="4.8" d="M23.467 29.333l13.333-13.333M36.8 16l-13.333-13.333M36.8 16h-32">
</path>
</symbol>

<symbol id="icon-close" viewBox="0 0 32 32">
<path fill="none" stroke-linejoin="round" stroke-linecap="round" stroke-miterlimit="4" stroke-width="2.4615" d="M24 8l-16 16">
</path>
<path fill="none" stroke-linejoin="round" stroke-linecap="round" stroke-miterlimit="4" stroke-width="2.4615" d="M8 8l16 16">
</path>
</symbol>

<symbol id="icon-run" viewBox="0 0 32 32">
<path fill="#efa082" style="fill: var(--color1, #efa082)" d="M32 16c0 8.837-7.163 16-16 16s-16-7.163-16-16c0-8.837 7.163-16 16-16s16 7.163 16 16z"></path>
<path fill="#efede8" style="fill: var(--color2, #efede8)" d="M25.099 11.634c-0.281-0.334-0.779-0.378-1.112-0.099l-2.187 1.838-1.008-2.493c-0.034-0.094-0.089-0.172-0.151-0.241-0.206-0.457-0.563-0.85-1.055-1.078-0.214-0.097-0.435-0.149-0.656-0.174-0.047-0.025-0.091-0.059-0.149-0.076l-3.849-1.073c-0.216-0.059-0.432-0.021-0.612 0.083-0.211 0.072-0.393 0.225-0.479 0.448l-1.451 3.728c-0.156 0.405 0.044 0.863 0.451 1.022 0.406 0.157 0.865-0.045 1.023-0.452l1.224-3.148 1.753 0.487c-0.042 0.069-0.089 0.134-0.122 0.208l-2.25 4.873c-0.031 0.072-0.049 0.144-0.070 0.218l-2.734 4.58-4.57 1.529c-0.518 0.387-0.628 1.116-0.245 1.633 0.383 0.519 1.115 0.629 1.63 0.246l4.68-1.612c0.143-0.104 0.247-0.24 0.326-0.387 0.060-0.062 0.125-0.112 0.172-0.189l1.628-2.731 2.893 2.464-3.094 3.486c-0.427 0.481-0.385 1.221 0.099 1.646 0.482 0.429 1.219 0.384 1.648-0.099l3.859-4.349c0.12-0.134 0.193-0.289 0.242-0.451 0.029-0.088 0.029-0.179 0.034-0.27 0-0.046 0.018-0.088 0.016-0.131-0.010-0.319-0.141-0.628-0.401-0.849l-2.661-2.269c0.193-0.183 0.354-0.4 0.471-0.655l1.724-3.733 0.552 1.471c0.023 0.131 0.068 0.259 0.161 0.366 0.083 0.099 0.187 0.165 0.302 0.211 0.010 0.006 0.026 0.007 0.039 0.010 0.070 0.025 0.143 0.050 0.219 0.053 0.089 0.008 0.18-0.003 0.271-0.029 0.003-0.001 0.003-0.001 0.003-0.001 0.026-0.006 0.049-0.001 0.073-0.012 0.13-0.048 0.227-0.131 0.313-0.226l3.138-2.665c0.336-0.281 0.193-0.777-0.086-1.111z"></path>
<path fill="#efede8" style="fill: var(--color2, #efede8)" d="M23.325 7.534c0 1.215-0.984 2.201-2.2 2.201s-2.201-0.985-2.201-2.201 0.984-2.201 2.201-2.201c1.216 0 2.2 0.985 2.2 2.201z"></path>
</symbol>

<!-- timer -->
<symbol id="Pause" viewBox="0 0 29 32">
<path fill="none" stroke="#efede8" style="stroke: var(--color1, #efede8)" stroke-linejoin="round" stroke-linecap="round" stroke-miterlimit="4" stroke-width="4.16" d="M3.731 28.8v-25.6M25.065 28.8v-25.6"></path>
</symbol>

<symbol viewBox="0 0 8 13" id="Polygon">
<path id="Polygon 1" d="M9 6L0 11.1962V0.803848L9 6Z" fill="#EFEDE8"/>
</symbol>

<!-- Products -->
<symbol viewBox="0 0 15.750667 15.750667" id="icon-Search">
<path id="Vector" d="M8.25 14.25C11.5637 14.25 14.25 11.5637 14.25 8.25C14.25 4.93629 11.5637 2.25 8.25 2.25C4.93629 2.25 2.25 4.93629 2.25 8.25C2.25 11.5637 4.93629 14.25 8.25 14.25Z" stroke="#EFEDE8" stroke-width="1.5" stroke-linecap="round" stroke-linejoin="round"/>
<path id="Vector_2" d="M15.7508 15.75L12.4883 12.4875" stroke="#EFEDE8" stroke-width="1.5" stroke-linecap="round" stroke-linejoin="round"/>
</symbol>

</svg>