<svg xmlns="http://www.w3.org/2000/svg">

<symbol id="icon-eye" viewBox="0 0 32 32">
<path stroke-linejoin="round" stroke-linecap="round" stroke-miterlimit="4" stroke-width="2.88" d="M1.333 16c0 0 5.333-10.667 14.667-10.667s14.667 10.667 14.667 10.667-5.333 10.667-14.667 10.667c-9.333 0-14.667-10.667-14.667-10.667z"></path>
<path stroke-linejoin="round" stroke-linecap="round" stroke-miterlimit="4" stroke-width="2.88" d="M16 20c2.209 0 4-1.791 4-4s-1.791-4-4-4c-2.209 0-4 1.791-4 4s1.791 4 4 4z"></path>
</symbol>
<symbol id="icon-eye-off" viewBox="0 0 32 32">
<path stroke-linejoin="round" stroke-linecap="round" stroke-miterlimit="4" stroke-width="2.88" d="M23.92 23.92c-2.279 1.737-5.055 2.7-7.92 2.747-9.333 0-14.667-10.667-14.667-10.667 1.659-3.091 3.959-5.791 6.747-7.92M13.2 5.653c0.918-0.215 1.857-0.322 2.8-0.32 9.333 0 14.667 10.667 14.667 10.667-0.809 1.514-1.775 2.94-2.88 4.253M18.827 18.827c-0.366 0.393-0.808 0.708-1.299 0.927s-1.020 0.336-1.557 0.346c-0.537 0.009-1.071-0.089-1.569-0.291s-0.95-0.501-1.33-0.88c-0.38-0.38-0.679-0.832-0.88-1.33s-0.3-1.032-0.29-1.569c0.009-0.537 0.127-1.067 0.346-1.558s0.534-0.932 0.927-1.298"></path>
<path stroke-linejoin="round" stroke-linecap="round" stroke-miterlimit="4" stroke-width="2.88" d="M1.333 1.333l29.333 29.333"></path>
</symbol>
<symbol id="icon-success" viewBox="0 0 32 32">
<path fill="#3cbf61" style="fill: var(--color1, #3cbf61)" d="M16 29.333c-7.364 0-13.333-5.969-13.333-13.333s5.969-13.333 13.333-13.333c7.364 0 13.333 5.969 13.333 13.333s-5.969 13.333-13.333 13.333zM14.459 21.98l9.427-9.428-1.885-1.885-7.541 7.543-3.772-3.772-1.885 1.885 5.657 5.657z"></path>
</symbol>

<symbol id="icon-error" viewBox="0 0 32 32">
<path fill="#d80027" style="fill: var(--color1, #d80027)" d="M16 29.333c-7.364 0-13.333-5.969-13.333-13.333s5.969-13.333 13.333-13.333c7.364 0 13.333 5.969 13.333 13.333s-5.969 13.333-13.333 13.333zM14.459 21.98l9.427-9.428-1.885-1.885-7.541 7.543-3.772-3.772-1.885 1.885 5.657 5.657z"></path>
</symbol>

<symbol id="icon-warning" viewBox="0 0 32 32">
<path d="M32 16c0 8.837-7.163 16-16 16s-16-7.163-16-16c0-8.837 7.163-16 16-16s16 7.163 16 16z"></path>
<path  stroke-linejoin="round" stroke-linecap="round" stroke-miterlimit="4" stroke-width="2.6667" d="M16 25.333v0.013M16 20v-13.333"></path>
</symbol>

<symbol id="icon-add-avatar" viewBox="0 0 33 32">
			<path fill="#e6533c" style="fill: var(--color3, #e6533c)" d="M11.238 0.428l4.69 1.356c0.339 0.098 0.699 0.099 1.038 0.002l4.83-1.375c0.845-0.241 1.744 0.136 2.166 0.906l2.506 4.577c0.168 0.307 0.419 0.561 0.723 0.734l3.986 2.258c0.771 0.437 1.133 1.352 0.869 2.198l-1.381 4.428c-0.113 0.363-0.114 0.752-0.002 1.115l1.394 4.521c0.258 0.836-0.094 1.739-0.849 2.18l-4.443 2.597c-0.303 0.177-0.551 0.436-0.715 0.746l-2.114 4.004c-0.409 0.775-1.298 1.165-2.145 0.941l-4.863-1.284c-0.317-0.084-0.651-0.083-0.968 0.002l-4.715 1.264c-0.867 0.232-1.777-0.179-2.175-0.983l-2.106-4.256c-0.177-0.357-0.462-0.649-0.816-0.834l-4.304-2.247c-0.786-0.411-1.179-1.314-0.943-2.169l1.255-4.548c0.089-0.322 0.090-0.662 0.005-0.985l-1.288-4.843c-0.221-0.833 0.151-1.71 0.904-2.129l4.422-2.46c0.322-0.179 0.584-0.448 0.754-0.775l2.090-4.007c0.414-0.794 1.331-1.187 2.192-0.938z">
			</path>
			<path fill="none" stroke="#efede8" style="stroke: var(--color2, #efede8)" stroke-linejoin="round" stroke-linecap="round" stroke-miterlimit="4" stroke-width="2" d="M16.5 10.75v10.5">
			</path>
			<path fill="none" stroke="#efede8" style="stroke: var(--color2, #efede8)" stroke-linejoin="round" stroke-linecap="round" stroke-miterlimit="4" stroke-width="2" d="M11.25 16h10.5">
			</path>
		</symbol>

<symbol id="icon-avatar" viewBox="0 0 32 32">
			<path fill="#efede8" style="fill: var(--color2, #efede8)" opacity="0.1" d="M16 5.333c1.415 0 2.771 0.562 3.771 1.562s1.562 2.357 1.562 3.771-0.562 2.771-1.562 3.771c-1 1-2.357 1.562-3.771 1.562s-2.771-0.562-3.771-1.562c-1-1-1.562-2.357-1.562-3.771s0.562-2.771 1.562-3.771c1-1 2.357-1.562 3.771-1.562zM16 26.667c0 0 10.667 0 10.667-2.667 0-3.2-5.2-6.667-10.667-6.667s-10.667 3.467-10.667 6.667c0 2.667 10.667 2.667 10.667 2.667z">
			</path>
		</symbol>	
			<symbol id="icon-calendar-white" viewBox="0 0 32 32">
			<path fill="none" stroke="#efede8" style="stroke: var(--color2, #efede8)" stroke-linejoin="round" stroke-linecap="round" stroke-miterlimit="4" stroke-width="2.6667" d="M25.333 5.333h-18.667c-1.473 0-2.667 1.194-2.667 2.667v18.667c0 1.473 1.194 2.667 2.667 2.667h18.667c1.473 0 2.667-1.194 2.667-2.667v-18.667c0-1.473-1.194-2.667-2.667-2.667z">
			</path>
			<path fill="none" stroke="#efede8" style="stroke: var(--color2, #efede8)" stroke-linejoin="round" stroke-linecap="round" stroke-miterlimit="4" stroke-width="2.6667" d="M21.333 2.667v5.333">
			</path>
			<path fill="none" stroke="#efede8" style="stroke: var(--color2, #efede8)" stroke-linejoin="round" stroke-linecap="round" stroke-miterlimit="4" stroke-width="2.6667" d="M10.667 2.667v5.333">
			</path>
			<path fill="none" stroke="#efede8" style="stroke: var(--color2, #efede8)" stroke-linejoin="round" stroke-linecap="round" stroke-miterlimit="4" stroke-width="2.6667" d="M4 13.333h24">
			</path>
		</symbol>	
</svg>